HIERARCHY
ROOT Hips
{
	OFFSET 0.000000 0.000000 0.000000
	CHANNELS 6 Xposition Yposition Zposition Zrotation Yrotation Xrotation 
	JOINT LHipJoint
	{
		OFFSET 0.000000 0.000000 0.000000
		CHANNELS 3 Zrotation Yrotation Xrotation
		JOINT LeftUpLeg
		{
			OFFSET 1.363060 -1.794630 0.839290
			CHANNELS 3 Zrotation Yrotation Xrotation
			JOINT LeftLeg
			{
				OFFSET 2.448110 -6.726130 0.000000
				CHANNELS 3 Zrotation Yrotation Xrotation
				JOINT LeftFoot
				{
					OFFSET 2.562200 -7.039590 0.000000
					CHANNELS 3 Zrotation Yrotation Xrotation
					JOINT LeftToeBase
					{
						OFFSET 0.157640 -0.433110 2.322550
						CHANNELS 3 Zrotation Yrotation Xrotation
						End Site
						{
							OFFSET 0.000000 0.000000 0.000000
						}
					}
				}
			}
		}
	}
	JOINT RHipJoint
	{
		OFFSET 0.000000 0.000000 0.000000
		CHANNELS 3 Zrotation Yrotation Xrotation
		JOINT RightUpLeg
		{
			OFFSET -1.305520 -1.794630 0.839290
			CHANNELS 3 Zrotation Yrotation Xrotation
			JOINT RightLeg
			{
				OFFSET -2.542530 -6.985550 0.000000
				CHANNELS 3 Zrotation Yrotation Xrotation
				JOINT RightFoot
				{
					OFFSET -2.568260 -7.056230 0.000000
					CHANNELS 3 Zrotation Yrotation Xrotation
					JOINT RightToeBase
					{
						OFFSET -0.164730 -0.452590 2.363150
						CHANNELS 3 Zrotation Yrotation Xrotation
						End Site
						{
							OFFSET 0.000000 0.000000 0.000000
						}
					}
				}
			}
		}
	}
	JOINT LowerBack
	{
		OFFSET 0.000000 0.000000 0.000000
		CHANNELS 3 Zrotation Yrotation Xrotation
		JOINT Spine
		{
			OFFSET 0.028270 2.035590 -0.193380
			CHANNELS 3 Zrotation Yrotation Xrotation
			JOINT Spine1
			{
				OFFSET 0.056720 2.048850 -0.042750
				CHANNELS 3 Zrotation Yrotation Xrotation
				JOINT Neck
				{
					OFFSET 0.000000 0.000000 0.000000
					CHANNELS 3 Zrotation Yrotation Xrotation
					JOINT Neck1
					{
						OFFSET -0.054170 1.746240 0.172020
						CHANNELS 3 Zrotation Yrotation Xrotation
						JOINT Head
						{
							OFFSET 0.104070 1.761360 -0.123970
							CHANNELS 3 Zrotation Yrotation Xrotation
							End Site
							{
								OFFSET 0.000000 0.000000 0.000000
							}
						}
					}
				}
				JOINT LeftShoulder
				{
					OFFSET 0.000000 0.000000 0.000000
					CHANNELS 3 Zrotation Yrotation Xrotation
					JOINT LeftArm
					{
						OFFSET 3.362410 1.200890 -0.311210
						CHANNELS 3 Zrotation Yrotation Xrotation
						JOINT LeftForeArm
						{
							OFFSET 4.983000 -0.000000 -0.000000
							CHANNELS 3 Zrotation Yrotation Xrotation
							JOINT LeftHand
							{
								OFFSET 3.483560 -0.000000 -0.000000
								CHANNELS 3 Zrotation Yrotation Xrotation
								JOINT LeftFingerBase
								{
									OFFSET 0.000000 0.000000 0.000000
									CHANNELS 3 Zrotation Yrotation Xrotation
									JOINT LeftHandIndex1
									{
										OFFSET 0.715260 -0.000000 -0.000000
										CHANNELS 3 Zrotation Yrotation Xrotation
										End Site
										{
											OFFSET 0.000000 0.000000 0.000000
										}
									}
								}
								JOINT LThumb
								{
									OFFSET 0.000000 0.000000 0.000000
									CHANNELS 3 Zrotation Yrotation Xrotation
									End Site
									{
										OFFSET 0.000000 0.000000 0.000000
									}
								}
							}
						}
					}
				}
				JOINT RightShoulder
				{
					OFFSET 0.000000 0.000000 0.000000
					CHANNELS 3 Zrotation Yrotation Xrotation
					JOINT RightArm
					{
						OFFSET -3.136600 1.374050 -0.404650
						CHANNELS 3 Zrotation Yrotation Xrotation
						JOINT RightForeArm
						{
							OFFSET -5.241900 -0.000000 -0.000000
							CHANNELS 3 Zrotation Yrotation Xrotation
							JOINT RightHand
							{
								OFFSET -3.444170 -0.000000 -0.000000
								CHANNELS 3 Zrotation Yrotation Xrotation
								JOINT RightFingerBase
								{
									OFFSET 0.000000 0.000000 0.000000
									CHANNELS 3 Zrotation Yrotation Xrotation
									JOINT RightHandIndex1
									{
										OFFSET -0.622530 -0.000000 -0.000000
										CHANNELS 3 Zrotation Yrotation Xrotation
										End Site
										{
											OFFSET 0.000000 0.000000 0.000000
										}
									}
								}
								JOINT RThumb
								{
									OFFSET 0.000000 0.000000 0.000000
									CHANNELS 3 Zrotation Yrotation Xrotation
									End Site
									{
										OFFSET 0.000000 0.000000 0.000000
									}
								}
							}
						}
					}
				}
			}
		}
	}
}
MOTION
Frames: 6
Frame Time: 0.008333
5.143445 17.377298 1.176066 -177.659809 -58.715221 -172.745004 -12.334690 3.457096 -2.439558 -8.498550 35.303199 -12.804354 -3.400956 -0.898564 -1.360793 1.404291 10.972086 -1.090288 1.168700 0.000000 -26.558900 8.378354 -1.437321 5.635567 3.315360 12.236365 -13.594217 3.436826 1.473771 0.365348 1.633258 9.978223 5.061839 1.489200 0.000000 -42.303299 4.461331 -5.271808 -4.784503 1.007591 -5.714261 -4.127295 -4.838644 -5.831206 -1.641256 6.596898 -4.718062 1.507995 -0.971658 -0.213509 2.541437 0.000000 0.000000 0.000000 4.170695 -5.194179 3.794252 -58.728449 -23.149645 -1.839749 -4.104661 -20.388360 -0.014469 -9.229354 16.948931 -1.353787 -0.106347 0.102675 -0.000000 0.000000 0.000000 0.000000 0.000000 0.000000 0.000000 -5.021619 -6.369471 -8.446281 69.536542 56.726155 -7.554213 -174.753799 59.976621 179.644146 -19.525394 19.035218 -3.537242 0.057800 -1.182298 0.000000 0.000000 0.000000 0.000000 0.000000 0.000000 0.000000 
5.147526 17.377284 1.168939 -177.696428 -58.691051 -172.636717 -12.306082 3.430177 -2.422642 -8.573147 35.211813 -13.015424 -3.400451 -0.891103 -1.097545 1.424715 11.085804 -1.228787 1.156400 0.000000 -26.474800 8.382772 -1.446012 5.666430 3.290649 12.279390 -13.736002 3.433519 1.466075 0.398029 1.636920 10.024854 5.055492 1.500799 -0.000000 -42.299600 4.328634 -5.189553 -4.848192 0.982325 -5.626521 -4.122427 -4.839076 -5.743283 -1.564790 6.472368 -4.813684 1.385338 -0.979556 -0.211764 2.508387 0.000000 0.000000 0.000000 3.978239 -4.574525 3.728680 -58.993722 -22.546750 -0.625327 -3.972073 -23.834122 -0.014510 -9.602682 17.701350 -1.475063 -0.099878 0.094655 -0.000000 0.000000 0.000000 0.000000 0.000000 0.000000 0.000000 -5.164165 -6.364044 -8.404534 68.418035 56.536182 -8.664529 -174.728460 59.624049 179.644585 -19.663013 18.870277 -3.533627 0.065673 -1.179410 0.000000 0.000000 0.000000 0.000000 0.000000 0.000000 0.000000 
5.152110 17.377505 1.161828 -177.708965 -58.747640 -172.557908 -12.277778 3.403777 -2.391874 -8.625964 35.059279 -13.201783 -3.393564 -0.885003 -0.870674 1.444292 11.190627 -1.348621 1.147100 0.000000 -26.389000 8.388181 -1.453652 5.686738 3.287694 12.281017 -13.836302 3.431289 1.463118 0.392027 1.637008 10.030976 5.058627 1.504600 0.000000 -42.281200 4.202588 -5.117416 -4.912482 0.954990 -5.549238 -4.118528 -4.851386 -5.665012 -1.498694 6.355472 -4.922965 1.284453 -0.991142 -0.210610 2.481362 0.000000 0.000000 0.000000 3.907912 -4.002177 3.637687 -59.077945 -22.071296 0.491839 -3.769878 -27.362700 -0.014523 -9.465377 18.273558 -1.503346 -0.092951 0.088230 0.000000 0.000000 0.000000 0.000000 0.000000 0.000000 0.000000 -5.269130 -6.386698 -8.364246 67.384281 56.352226 -9.699964 -174.704490 59.282722 179.645093 -19.789404 18.713758 -3.528911 0.073063 -1.176467 0.000000 0.000000 0.000000 0.000000 0.000000 0.000000 0.000000 
5.157203 17.377872 1.154998 -177.700291 -58.878136 -172.509692 -12.250529 3.378256 -2.349287 -8.655336 34.850046 -13.353837 -3.380100 -0.880741 -0.687899 1.463163 11.289099 -1.448286 1.141400 0.000000 -26.300900 8.394646 -1.459847 5.695685 3.304424 12.243530 -13.893049 3.429925 1.464319 0.350781 1.633798 10.000765 5.069969 1.501100 0.000000 -42.251900 4.084424 -5.055412 -4.973859 0.926328 -5.482283 -4.117049 -4.873541 -5.596578 -1.451645 6.243827 -5.036430 1.211187 -1.006349 -0.210135 2.462043 0.000000 0.000000 0.000000 3.939540 -3.497477 3.518422 -58.989749 -21.694229 1.453844 -3.501058 -30.995665 -0.014221 -8.828908 18.637106 -1.430830 -0.085681 0.084473 -0.000000 0.000000 0.000000 0.000000 0.000000 0.000000 0.000000 -5.344863 -6.426810 -8.321878 66.442900 56.168663 -10.653459 -174.682247 58.950325 179.645643 -19.904986 18.564717 -3.523193 0.080046 -1.173617 0.000000 0.000000 0.000000 0.000000 0.000000 0.000000 0.000000 
5.162535 17.378270 1.148631 -177.669742 -59.072876 -172.492082 -12.225146 3.353726 -2.298307 -8.660749 34.595219 -13.465924 -3.360823 -0.878605 -0.553636 1.480875 11.379580 -1.526775 1.139300 0.000000 -26.213700 8.401827 -1.464520 5.693590 3.338823 12.173125 -13.906610 3.429276 1.469142 0.277773 1.627428 9.937171 5.087316 1.490900 0.000000 -42.213500 3.975843 -5.002140 -5.028391 0.897408 -5.424173 -4.117356 -4.903122 -5.536562 -1.423924 6.134710 -5.152102 1.162386 -1.024495 -0.210239 2.449531 0.000000 0.000000 0.000000 4.042414 -3.032393 3.368513 -58.733258 -21.444286 2.249882 -3.176015 -34.729179 -0.013556 -7.730237 18.744650 -1.258908 -0.078617 0.084700 0.000000 0.000000 0.000000 0.000000 0.000000 0.000000 0.000000 -5.402299 -6.481740 -8.277078 65.599224 55.985984 -11.521354 -174.662350 58.624820 179.646196 -20.008715 18.429573 -3.517572 0.086639 -1.171146 0.000000 0.000000 0.000000 0.000000 0.000000 0.000000 0.000000 
5.168233 17.378633 1.142821 -177.623340 -59.320063 -172.501753 -12.201691 3.330117 -2.242099 -8.644639 34.307415 -13.537436 -3.336884 -0.878789 -0.469147 1.496926 11.460147 -1.584064 1.140601 -0.000000 -26.129500 8.409788 -1.467741 5.681679 3.387237 12.076402 -13.882066 3.428915 1.476568 0.180026 1.618318 9.846108 5.108213 1.474900 -0.000000 -42.166900 3.874975 -4.955335 -5.074568 0.868647 -5.372300 -4.120106 -4.936643 -5.482595 -1.419346 6.028063 -5.262255 1.139483 -1.044958 -0.210905 2.444247 0.000000 0.000000 0.000000 4.199468 -2.603604 3.185495 -58.327881 -21.324977 2.844053 -2.809356 -38.550582 -0.012711 -6.247534 18.544948 -1.003979 -0.072354 0.090332 0.000000 0.000000 0.000000 0.000000 0.000000 0.000000 0.000000 -5.450965 -6.542821 -8.227691 64.848088 55.797256 -12.308935 -174.645299 58.300530 179.646721 -20.102896 18.309658 -3.512948 0.093023 -1.169234 0.000000 0.000000 0.000000 0.000000 0.000000 0.000000 0.000000 
